<mxfile host="65bd71144e">
    <diagram id="ZUFH7VZzhd7gZUEbErfu" name="Page-1">
        <mxGraphModel dx="1206" dy="738" grid="0" gridSize="10" guides="1" tooltips="1" connect="1" arrows="1" fold="1" page="1" pageScale="1" pageWidth="850" pageHeight="1100" background="#6E6E6C" math="0" shadow="0">
            <root>
                <mxCell id="0"/>
                <mxCell id="1" parent="0"/>
                <mxCell id="2" value="genre: Jeux vidéo" style="text;html=1;strokeColor=none;fillColor=none;align=center;verticalAlign=middle;whiteSpace=wrap;rounded=0;fontColor=#050505;" parent="1" vertex="1">
                    <mxGeometry x="-46.5" y="281" width="120" height="30" as="geometry"/>
                </mxCell>
                <mxCell id="3" value="inspiré de sword art online ( un anime )" style="text;html=1;strokeColor=none;fillColor=none;align=center;verticalAlign=middle;whiteSpace=wrap;rounded=0;fontColor=#050505;" parent="1" vertex="1">
                    <mxGeometry x="-50" y="331" width="130" height="30" as="geometry"/>
                </mxCell>
                <mxCell id="4" value="&lt;font style=&quot;font-size: 12px&quot;&gt;nom : MikAi&lt;span style=&quot;font-family: &amp;quot;arial&amp;quot; , &amp;quot;helvetica&amp;quot; , sans-serif&quot;&gt;&amp;nbsp;&lt;/span&gt;en ligne&lt;/font&gt;" style="text;html=1;strokeColor=none;fillColor=none;align=center;verticalAlign=middle;whiteSpace=wrap;rounded=0;fontColor=#050505;" parent="1" vertex="1">
                    <mxGeometry x="-51.5" y="381" width="130" height="30" as="geometry"/>
                </mxCell>
                <mxCell id="5" value="fond nature donc vert bleu" style="text;html=1;strokeColor=none;fillColor=none;align=center;verticalAlign=middle;whiteSpace=wrap;rounded=0;fontSize=12;fontColor=#050505;" parent="1" vertex="1">
                    <mxGeometry x="-46.5" y="439" width="150" height="30" as="geometry"/>
                </mxCell>
                <mxCell id="6" value="bouton :&amp;nbsp;" style="text;html=1;strokeColor=none;fillColor=none;align=center;verticalAlign=middle;whiteSpace=wrap;rounded=0;fontSize=12;fontColor=#050505;" parent="1" vertex="1">
                    <mxGeometry x="-90" y="490" width="150" height="30" as="geometry"/>
                </mxCell>
                <mxCell id="7" value="clicker ici" style="rounded=1;whiteSpace=wrap;html=1;fontSize=12;fontColor=#050505;fillColor=#008a00;glass=0;strokeColor=#005700;" parent="1" vertex="1">
                    <mxGeometry x="25" y="485" width="120" height="40" as="geometry"/>
                </mxCell>
                <mxCell id="8" value="texte: teko" style="text;html=1;strokeColor=none;fillColor=none;align=center;verticalAlign=middle;whiteSpace=wrap;rounded=0;fontSize=12;fontColor=#050505;" parent="1" vertex="1">
                    <mxGeometry x="-85" y="550" width="150" height="30" as="geometry"/>
                </mxCell>
                <mxCell id="9" value="état de survol : devient plus foncé" style="text;html=1;strokeColor=none;fillColor=none;align=center;verticalAlign=middle;whiteSpace=wrap;rounded=0;fontSize=12;fontColor=#050505;" parent="1" vertex="1">
                    <mxGeometry x="-40" y="610" width="150" height="30" as="geometry"/>
                </mxCell>
                <mxCell id="10" value="entre dans la vr" style="rounded=1;whiteSpace=wrap;html=1;glass=0;labelBackgroundColor=none;fontFamily=Comic Sans MS;fontSize=12;fontColor=#050505;fillColor=default;gradientColor=none;" parent="1" vertex="1">
                    <mxGeometry x="-5" y="765" width="120" height="60" as="geometry"/>
                </mxCell>
                <mxCell id="11" value="" style="endArrow=classic;html=1;fontFamily=Comic Sans MS;fontSize=12;fontColor=#050505;exitX=0.5;exitY=1;exitDx=0;exitDy=0;" parent="1" source="10" edge="1">
                    <mxGeometry width="50" height="50" relative="1" as="geometry">
                        <mxPoint x="90" y="835" as="sourcePoint"/>
                        <mxPoint x="55" y="875" as="targetPoint"/>
                    </mxGeometry>
                </mxCell>
                <mxCell id="275" value="&lt;span style=&quot;&quot;&gt;continuer&lt;/span&gt;" style="edgeLabel;html=1;align=center;verticalAlign=middle;resizable=0;points=[];fontColor=#050505;" parent="11" vertex="1" connectable="0">
                    <mxGeometry x="-0.4812" relative="1" as="geometry">
                        <mxPoint as="offset"/>
                    </mxGeometry>
                </mxCell>
                <mxCell id="12" value="&lt;span style=&quot;font-family: &amp;quot;arial&amp;quot; , &amp;quot;helvetica&amp;quot; , sans-serif&quot;&gt;&lt;font style=&quot;font-size: 12px&quot;&gt;ê&lt;/font&gt;&lt;/span&gt;tes vous pr&lt;span style=&quot;font-family: arial, helvetica, sans-serif;&quot;&gt;ê&lt;/span&gt;t?" style="rhombus;whiteSpace=wrap;html=1;glass=0;labelBackgroundColor=none;fontFamily=Comic Sans MS;fontSize=12;fontColor=#050505;fillColor=default;gradientColor=none;" parent="1" vertex="1">
                    <mxGeometry x="15" y="875" width="80" height="80" as="geometry"/>
                </mxCell>
                <mxCell id="13" value="" style="endArrow=classic;html=1;fontFamily=Comic Sans MS;fontSize=12;fontColor=#050505;exitX=0.5;exitY=1;exitDx=0;exitDy=0;" parent="1" edge="1">
                    <mxGeometry width="50" height="50" relative="1" as="geometry">
                        <mxPoint x="54.5" y="955" as="sourcePoint"/>
                        <mxPoint x="54.5" y="1005" as="targetPoint"/>
                    </mxGeometry>
                </mxCell>
                <mxCell id="16" value="oui" style="edgeLabel;html=1;align=center;verticalAlign=middle;resizable=0;points=[];fontSize=12;fontFamily=Comic Sans MS;fontColor=#050505;" parent="13" vertex="1" connectable="0">
                    <mxGeometry x="-0.3886" y="1" relative="1" as="geometry">
                        <mxPoint as="offset"/>
                    </mxGeometry>
                </mxCell>
                <mxCell id="14" value="" style="endArrow=classic;html=1;fontFamily=Comic Sans MS;fontSize=12;fontColor=#050505;exitX=0;exitY=1;exitDx=0;exitDy=0;entryX=0;entryY=0.5;entryDx=0;entryDy=0;" parent="1" source="12" target="15" edge="1">
                    <mxGeometry width="50" height="50" relative="1" as="geometry">
                        <mxPoint x="64.5" y="965" as="sourcePoint"/>
                        <mxPoint x="-25" y="1035" as="targetPoint"/>
                        <Array as="points">
                            <mxPoint x="-25" y="935"/>
                            <mxPoint x="-25" y="1025"/>
                        </Array>
                    </mxGeometry>
                </mxCell>
                <mxCell id="17" value="non" style="edgeLabel;html=1;align=center;verticalAlign=middle;resizable=0;points=[];fontSize=12;fontFamily=Comic Sans MS;fontColor=#050505;" parent="14" vertex="1" connectable="0">
                    <mxGeometry x="-0.1345" y="-2" relative="1" as="geometry">
                        <mxPoint as="offset"/>
                    </mxGeometry>
                </mxCell>
                <mxCell id="15" value="entre dans le jeu" style="rounded=1;whiteSpace=wrap;html=1;glass=0;labelBackgroundColor=none;fontFamily=Comic Sans MS;fontSize=12;fontColor=#050505;fillColor=default;gradientColor=none;" parent="1" vertex="1">
                    <mxGeometry x="-5" y="1005" width="120" height="40" as="geometry"/>
                </mxCell>
                <mxCell id="18" value="" style="endArrow=classic;html=1;fontFamily=Comic Sans MS;fontSize=12;fontColor=#050505;exitX=0.5;exitY=1;exitDx=0;exitDy=0;entryX=0.5;entryY=0;entryDx=0;entryDy=0;" parent="1" source="15" target="19" edge="1">
                    <mxGeometry width="50" height="50" relative="1" as="geometry">
                        <mxPoint x="75" y="1125" as="sourcePoint"/>
                        <mxPoint x="55" y="1115" as="targetPoint"/>
                    </mxGeometry>
                </mxCell>
                <mxCell id="124" value="continuer" style="edgeLabel;html=1;align=center;verticalAlign=middle;resizable=0;points=[];fontColor=#050505;" parent="18" vertex="1" connectable="0">
                    <mxGeometry x="-0.2956" y="1" relative="1" as="geometry">
                        <mxPoint as="offset"/>
                    </mxGeometry>
                </mxCell>
                <mxCell id="19" value="&lt;font face=&quot;arial, helvetica, sans-serif&quot;&gt;Choix de l'arme&lt;/font&gt;" style="rhombus;whiteSpace=wrap;html=1;glass=0;labelBackgroundColor=none;fontFamily=Comic Sans MS;fontSize=12;fontColor=#050505;fillColor=default;gradientColor=none;" parent="1" vertex="1">
                    <mxGeometry x="15" y="1115" width="80" height="80" as="geometry"/>
                </mxCell>
                <mxCell id="20" value="" style="endArrow=classic;html=1;fontFamily=Comic Sans MS;fontSize=12;fontColor=#050505;exitX=0.5;exitY=1;exitDx=0;exitDy=0;" parent="1" source="19" edge="1">
                    <mxGeometry width="50" height="50" relative="1" as="geometry">
                        <mxPoint x="65" y="1225" as="sourcePoint"/>
                        <mxPoint x="55" y="1235" as="targetPoint"/>
                    </mxGeometry>
                </mxCell>
                <mxCell id="27" value="&lt;span style=&quot;font-family: helvetica;&quot;&gt;ép&lt;/span&gt;&lt;span style=&quot;font-family: helvetica;&quot;&gt;ée&lt;/span&gt;" style="edgeLabel;html=1;align=center;verticalAlign=middle;resizable=0;points=[];fontSize=12;fontFamily=Comic Sans MS;fontColor=#050505;" parent="20" vertex="1" connectable="0">
                    <mxGeometry x="-0.4417" relative="1" as="geometry">
                        <mxPoint as="offset"/>
                    </mxGeometry>
                </mxCell>
                <mxCell id="21" value="" style="endArrow=classic;html=1;fontFamily=Comic Sans MS;fontSize=12;fontColor=#050505;exitX=1;exitY=1;exitDx=0;exitDy=0;entryX=1;entryY=0.5;entryDx=0;entryDy=0;" parent="1" source="19" target="23" edge="1">
                    <mxGeometry width="50" height="50" relative="1" as="geometry">
                        <mxPoint x="114.17000000000002" y="1155" as="sourcePoint"/>
                        <mxPoint x="95" y="1235" as="targetPoint"/>
                        <Array as="points">
                            <mxPoint x="135" y="1175"/>
                            <mxPoint x="135" y="1255"/>
                        </Array>
                    </mxGeometry>
                </mxCell>
                <mxCell id="26" value="bouclier" style="edgeLabel;html=1;align=center;verticalAlign=middle;resizable=0;points=[];fontSize=12;fontFamily=Comic Sans MS;fontColor=#050505;" parent="21" vertex="1" connectable="0">
                    <mxGeometry x="-0.0399" y="-3" relative="1" as="geometry">
                        <mxPoint x="1" as="offset"/>
                    </mxGeometry>
                </mxCell>
                <mxCell id="23" value="entre dans un village" style="rounded=1;whiteSpace=wrap;html=1;glass=0;labelBackgroundColor=none;fontFamily=Comic Sans MS;fontSize=12;fontColor=#050505;fillColor=default;gradientColor=none;" parent="1" vertex="1">
                    <mxGeometry x="-5" y="1235" width="120" height="40" as="geometry"/>
                </mxCell>
                <mxCell id="24" value="" style="endArrow=classic;html=1;fontFamily=Comic Sans MS;fontSize=12;fontColor=#050505;exitX=0.5;exitY=1;exitDx=0;exitDy=0;" parent="1" edge="1">
                    <mxGeometry width="50" height="50" relative="1" as="geometry">
                        <mxPoint x="54.579999999999984" y="1275" as="sourcePoint"/>
                        <mxPoint x="55" y="1325" as="targetPoint"/>
                    </mxGeometry>
                </mxCell>
                <mxCell id="276" value="&lt;span style=&quot;font-family: monospace; font-size: 0px;&quot;&gt;%3CmxGraphModel%3E%3Croot%3E%3CmxCell%20id%3D%220%22%2F%3E%3CmxCell%20id%3D%221%22%20parent%3D%220%22%2F%3E%3CmxCell%20id%3D%222%22%20value%3D%22le%20dragon%20vous%20enflame%20et%20vous%20allez%20en%20enfer%2Cr%26lt%3Bspan%20style%3D%26quot%3Bfont-family%3A%20helvetica%3B%26quot%3B%26gt%3B%C3%A9%26lt%3B%2Fspan%26gt%3Bnitialisation%20de%20votre%20progression%22%20style%3D%22rounded%3D1%3BwhiteSpace%3Dwrap%3Bhtml%3D1%3Bglass%3D0%3BlabelBackgroundColor%3Dnone%3BfontFamily%3DComic%20Sans%20MS%3BfontSize%3D12%3BfontColor%3D%23FFFFFF%3BfillColor%3Ddefault%3BgradientColor%3Dnone%3B%22%20vertex%3D%221%22%20parent%3D%221%22%3E%3CmxGeometry%20x%3D%22-355%22%20y%3D%222670%22%20width%3D%22133%22%20height%3D%2285%22%20as%3D%22geometry%22%2F%3E%3C%2FmxCell%3E%3C%2Froot%3E%3C%2FmxGraphModel%3E&lt;/span&gt;" style="edgeLabel;html=1;align=center;verticalAlign=middle;resizable=0;points=[];fontColor=#050505;" parent="24" vertex="1" connectable="0">
                    <mxGeometry x="-0.4023" y="1" relative="1" as="geometry">
                        <mxPoint as="offset"/>
                    </mxGeometry>
                </mxCell>
                <mxCell id="277" value="&lt;span style=&quot;font-family: monospace; font-size: 0px;&quot;&gt;%3CmxGraphModel%3E%3Croot%3E%3CmxCell%20id%3D%220%22%2F%3E%3CmxCell%20id%3D%221%22%20parent%3D%220%22%2F%3E%3CmxCell%20id%3D%222%22%20value%3D%22le%20dragon%20vous%20enflame%20et%20vous%20allez%20en%20enfer%2Cr%26lt%3Bspan%20style%3D%26quot%3Bfont-family%3A%20helvetica%3B%26quot%3B%26gt%3B%C3%A9%26lt%3B%2Fspan%26gt%3Bnitialisation%20de%20votre%20progression%22%20style%3D%22rounded%3D1%3BwhiteSpace%3Dwrap%3Bhtml%3D1%3Bglass%3D0%3BlabelBackgroundColor%3Dnone%3BfontFamily%3DComic%20Sans%20MS%3BfontSize%3D12%3BfontColor%3D%23FFFFFF%3BfillColor%3Ddefault%3BgradientColor%3Dnone%3B%22%20vertex%3D%221%22%20parent%3D%221%22%3E%3CmxGeometry%20x%3D%22-355%22%20y%3D%222670%22%20width%3D%22133%22%20height%3D%2285%22%20as%3D%22geometry%22%2F%3E%3C%2FmxCell%3E%3C%2Froot%3E%3C%2FmxGraphModel%3E&lt;/span&gt;" style="edgeLabel;html=1;align=center;verticalAlign=middle;resizable=0;points=[];fontColor=#050505;" parent="24" vertex="1" connectable="0">
                    <mxGeometry x="-0.5704" relative="1" as="geometry">
                        <mxPoint as="offset"/>
                    </mxGeometry>
                </mxCell>
                <mxCell id="278" value="&lt;span style=&quot;&quot;&gt;continuer&lt;/span&gt;" style="edgeLabel;html=1;align=center;verticalAlign=middle;resizable=0;points=[];fontColor=#050505;" parent="24" vertex="1" connectable="0">
                    <mxGeometry x="-0.5903" relative="1" as="geometry">
                        <mxPoint as="offset"/>
                    </mxGeometry>
                </mxCell>
                <mxCell id="25" value="un homme demande pour de la nouriture" style="rhombus;whiteSpace=wrap;html=1;glass=0;labelBackgroundColor=none;fontFamily=Comic Sans MS;fontSize=12;fontColor=#050505;fillColor=default;gradientColor=none;" parent="1" vertex="1">
                    <mxGeometry x="-13" y="1304" width="136" height="141" as="geometry"/>
                </mxCell>
                <mxCell id="29" value="" style="endArrow=classic;html=1;fontFamily=Comic Sans MS;fontSize=12;fontColor=#050505;entryX=0;entryY=0.5;entryDx=0;entryDy=0;exitX=0;exitY=1;exitDx=0;exitDy=0;" parent="1" source="25" target="31" edge="1">
                    <mxGeometry width="50" height="50" relative="1" as="geometry">
                        <mxPoint x="54.759999999999934" y="1445" as="sourcePoint"/>
                        <mxPoint x="-5" y="1475" as="targetPoint"/>
                        <Array as="points">
                            <mxPoint x="-49" y="1410"/>
                            <mxPoint x="-49" y="1495"/>
                        </Array>
                    </mxGeometry>
                </mxCell>
                <mxCell id="32" value="lui donner une patate" style="edgeLabel;html=1;align=center;verticalAlign=middle;resizable=0;points=[];fontSize=12;fontFamily=Comic Sans MS;fontColor=#050505;" parent="29" vertex="1" connectable="0">
                    <mxGeometry x="-0.1281" y="1" relative="1" as="geometry">
                        <mxPoint as="offset"/>
                    </mxGeometry>
                </mxCell>
                <mxCell id="30" value="" style="endArrow=classic;html=1;fontFamily=Comic Sans MS;fontSize=12;fontColor=#050505;entryX=0.5;entryY=0;entryDx=0;entryDy=0;exitX=0.5;exitY=1;exitDx=0;exitDy=0;" parent="1" source="25" target="31" edge="1">
                    <mxGeometry width="50" height="50" relative="1" as="geometry">
                        <mxPoint x="85" y="1415" as="sourcePoint"/>
                        <mxPoint x="115" y="1475" as="targetPoint"/>
                        <Array as="points">
                            <mxPoint x="55" y="1458"/>
                        </Array>
                    </mxGeometry>
                </mxCell>
                <mxCell id="33" value="l'ignorer" style="edgeLabel;html=1;align=center;verticalAlign=middle;resizable=0;points=[];fontSize=12;fontFamily=Comic Sans MS;fontColor=#050505;" parent="30" vertex="1" connectable="0">
                    <mxGeometry x="-0.1281" y="1" relative="1" as="geometry">
                        <mxPoint as="offset"/>
                    </mxGeometry>
                </mxCell>
                <mxCell id="31" value="vous partez en aventure" style="rounded=1;whiteSpace=wrap;html=1;glass=0;labelBackgroundColor=none;fontFamily=Comic Sans MS;fontSize=12;fontColor=#050505;fillColor=default;gradientColor=none;" parent="1" vertex="1">
                    <mxGeometry x="-5" y="1475" width="120" height="40" as="geometry"/>
                </mxCell>
                <mxCell id="36" value="" style="endArrow=classic;html=1;fontFamily=Comic Sans MS;fontSize=12;fontColor=#050505;exitX=0;exitY=0.75;exitDx=0;exitDy=0;entryX=0.5;entryY=0;entryDx=0;entryDy=0;" parent="1" source="31" target="43" edge="1">
                    <mxGeometry width="50" height="50" relative="1" as="geometry">
                        <mxPoint x="-327" y="1507" as="sourcePoint"/>
                        <mxPoint x="-387" y="1627" as="targetPoint"/>
                        <Array as="points">
                            <mxPoint x="-491" y="1500"/>
                        </Array>
                    </mxGeometry>
                </mxCell>
                <mxCell id="44" value="aller dans les plaines" style="edgeLabel;html=1;align=center;verticalAlign=middle;resizable=0;points=[];fontSize=12;fontFamily=Comic Sans MS;fontColor=#050505;" parent="36" vertex="1" connectable="0">
                    <mxGeometry x="0.6406" relative="1" as="geometry">
                        <mxPoint as="offset"/>
                    </mxGeometry>
                </mxCell>
                <mxCell id="37" value="" style="endArrow=classic;html=1;fontFamily=Comic Sans MS;fontSize=12;fontColor=#050505;exitX=1;exitY=0.75;exitDx=0;exitDy=0;entryX=0.5;entryY=0;entryDx=0;entryDy=0;" parent="1" source="31" target="176" edge="1">
                    <mxGeometry width="50" height="50" relative="1" as="geometry">
                        <mxPoint x="145" y="1665" as="sourcePoint"/>
                        <mxPoint x="685.5" y="1610.5" as="targetPoint"/>
                        <Array as="points">
                            <mxPoint x="175" y="1505"/>
                            <mxPoint x="611" y="1505"/>
                        </Array>
                    </mxGeometry>
                </mxCell>
                <mxCell id="41" value="aller vers une ocean&lt;br&gt;" style="edgeLabel;html=1;align=center;verticalAlign=middle;resizable=0;points=[];fontSize=12;fontFamily=Comic Sans MS;fontColor=#050505;" parent="37" vertex="1" connectable="0">
                    <mxGeometry x="0.6986" relative="1" as="geometry">
                        <mxPoint as="offset"/>
                    </mxGeometry>
                </mxCell>
                <mxCell id="43" value="un poulet vous affronte&amp;nbsp;" style="rhombus;whiteSpace=wrap;html=1;glass=0;labelBackgroundColor=none;fontFamily=Comic Sans MS;fontSize=12;fontColor=#050505;fillColor=default;gradientColor=none;" parent="1" vertex="1">
                    <mxGeometry x="-541" y="1612" width="99" height="99" as="geometry"/>
                </mxCell>
                <mxCell id="54" value="vous avez battu le poulet" style="rounded=1;whiteSpace=wrap;html=1;glass=0;labelBackgroundColor=none;fontFamily=Comic Sans MS;fontSize=12;fontColor=#050505;fillColor=default;gradientColor=none;" parent="1" vertex="1">
                    <mxGeometry x="-552.5" y="2049.5" width="120" height="60" as="geometry"/>
                </mxCell>
                <mxCell id="57" value="" style="endArrow=classic;html=1;fontFamily=Comic Sans MS;fontSize=12;fontColor=#050505;" parent="1" source="54" edge="1">
                    <mxGeometry width="50" height="50" relative="1" as="geometry">
                        <mxPoint x="-492.5" y="2112.5" as="sourcePoint"/>
                        <mxPoint x="-492.5" y="2182.5" as="targetPoint"/>
                    </mxGeometry>
                </mxCell>
                <mxCell id="279" value="&lt;span style=&quot;&quot;&gt;continuer&lt;/span&gt;" style="edgeLabel;html=1;align=center;verticalAlign=middle;resizable=0;points=[];fontColor=#050505;" parent="57" vertex="1" connectable="0">
                    <mxGeometry x="-0.3694" y="-1" relative="1" as="geometry">
                        <mxPoint as="offset"/>
                    </mxGeometry>
                </mxCell>
                <mxCell id="58" value="le fr&lt;span style=&quot;font-family: &amp;quot;arial&amp;quot; , &amp;quot;helvetica&amp;quot; , sans-serif&quot;&gt;&lt;font style=&quot;font-size: 12px&quot;&gt;ère du poulet vous poursuis&lt;/font&gt;&lt;/span&gt;" style="rhombus;whiteSpace=wrap;html=1;glass=0;labelBackgroundColor=none;fontFamily=Comic Sans MS;fontSize=12;fontColor=#050505;fillColor=default;gradientColor=none;" parent="1" vertex="1">
                    <mxGeometry x="-532.5" y="2182.5" width="80" height="80" as="geometry"/>
                </mxCell>
                <mxCell id="59" value="" style="endArrow=classic;html=1;fontFamily=Comic Sans MS;fontSize=12;fontColor=#050505;exitX=0.5;exitY=1;exitDx=0;exitDy=0;entryX=0;entryY=0.75;entryDx=0;entryDy=0;" parent="1" source="58" target="84" edge="1">
                    <mxGeometry width="50" height="50" relative="1" as="geometry">
                        <mxPoint x="-105.5" y="2400" as="sourcePoint"/>
                        <mxPoint x="-268" y="2500" as="targetPoint"/>
                        <Array as="points">
                            <mxPoint x="-492" y="2500"/>
                        </Array>
                    </mxGeometry>
                </mxCell>
                <mxCell id="209" value="fuir" style="edgeLabel;html=1;align=center;verticalAlign=middle;resizable=0;points=[];fontColor=#050505;" parent="59" vertex="1" connectable="0">
                    <mxGeometry x="-0.7151" y="2" relative="1" as="geometry">
                        <mxPoint as="offset"/>
                    </mxGeometry>
                </mxCell>
                <mxCell id="84" value="vous allez vers un village et une explosion se produit" style="rounded=1;whiteSpace=wrap;html=1;glass=0;labelBackgroundColor=none;fontFamily=Comic Sans MS;fontSize=12;fontColor=#050505;fillColor=default;gradientColor=none;" parent="1" vertex="1">
                    <mxGeometry x="-6.420000000000002" y="2457" width="120" height="60" as="geometry"/>
                </mxCell>
                <mxCell id="86" value="" style="endArrow=classic;html=1;fontFamily=Comic Sans MS;fontSize=12;fontColor=#050505;exitX=0.5;exitY=1;exitDx=0;exitDy=0;entryX=0.5;entryY=0;entryDx=0;entryDy=0;" parent="1" source="84" target="98" edge="1">
                    <mxGeometry width="50" height="50" relative="1" as="geometry">
                        <mxPoint x="57.5" y="2717" as="sourcePoint"/>
                        <mxPoint x="58" y="2611" as="targetPoint"/>
                    </mxGeometry>
                </mxCell>
                <mxCell id="87" value="continuer" style="edgeLabel;html=1;align=center;verticalAlign=middle;resizable=0;points=[];fontSize=12;fontFamily=Comic Sans MS;fontColor=#050505;" parent="86" vertex="1" connectable="0">
                    <mxGeometry x="0.4286" y="2" relative="1" as="geometry">
                        <mxPoint as="offset"/>
                    </mxGeometry>
                </mxCell>
                <mxCell id="98" value="&lt;span&gt;un dragon vous intercepte&lt;/span&gt;" style="rhombus;whiteSpace=wrap;html=1;glass=0;labelBackgroundColor=none;fontFamily=Comic Sans MS;fontSize=12;fontColor=#050505;fillColor=default;gradientColor=none;" parent="1" vertex="1">
                    <mxGeometry x="8.5" y="2602" width="96" height="89" as="geometry"/>
                </mxCell>
                <mxCell id="100" value="" style="endArrow=classic;html=1;fontFamily=Comic Sans MS;fontSize=12;fontColor=#050505;exitX=0;exitY=1;exitDx=0;exitDy=0;fillColor=#a20025;strokeColor=#6F0000;entryX=0.5;entryY=0;entryDx=0;entryDy=0;" parent="1" source="58" target="199" edge="1">
                    <mxGeometry width="50" height="50" relative="1" as="geometry">
                        <mxPoint x="5" y="2340" as="sourcePoint"/>
                        <mxPoint x="-563" y="2317" as="targetPoint"/>
                        <Array as="points">
                            <mxPoint x="-607" y="2243"/>
                        </Array>
                    </mxGeometry>
                </mxCell>
                <mxCell id="102" value="l'affronter" style="edgeLabel;html=1;align=center;verticalAlign=middle;resizable=0;points=[];fontSize=12;fontFamily=Comic Sans MS;fontColor=#050505;" parent="100" vertex="1" connectable="0">
                    <mxGeometry x="0.3458" relative="1" as="geometry">
                        <mxPoint as="offset"/>
                    </mxGeometry>
                </mxCell>
                <mxCell id="111" value="le dragon est affaibli. Un passant se raproche" style="rounded=1;whiteSpace=wrap;html=1;glass=0;labelBackgroundColor=none;fontFamily=Comic Sans MS;fontSize=12;fontColor=#050505;fillColor=default;gradientColor=none;" parent="1" vertex="1">
                    <mxGeometry x="-61.5" y="3181" width="120" height="60" as="geometry"/>
                </mxCell>
                <mxCell id="113" value="" style="endArrow=classic;html=1;fontFamily=Comic Sans MS;fontSize=12;fontColor=#050505;exitX=0.5;exitY=1;exitDx=0;exitDy=0;" parent="1" source="111" target="114" edge="1">
                    <mxGeometry width="50" height="50" relative="1" as="geometry">
                        <mxPoint x="58.5" y="3111" as="sourcePoint"/>
                        <mxPoint x="-1.5" y="3291" as="targetPoint"/>
                    </mxGeometry>
                </mxCell>
                <mxCell id="303" value="continuer" style="edgeLabel;html=1;align=center;verticalAlign=middle;resizable=0;points=[];fontColor=#050505;" parent="113" vertex="1" connectable="0">
                    <mxGeometry x="-0.4724" y="2" relative="1" as="geometry">
                        <mxPoint as="offset"/>
                    </mxGeometry>
                </mxCell>
                <mxCell id="114" value="avez vous aid&lt;span style=&quot;font-family: helvetica;&quot;&gt;é l'homme du d&lt;/span&gt;&lt;span style=&quot;font-family: helvetica;&quot;&gt;ébut&lt;/span&gt;" style="rhombus;whiteSpace=wrap;html=1;glass=0;labelBackgroundColor=none;fontFamily=Comic Sans MS;fontSize=12;fontColor=#050505;fillColor=default;gradientColor=none;" parent="1" vertex="1">
                    <mxGeometry x="-41.5" y="3281" width="80" height="80" as="geometry"/>
                </mxCell>
                <mxCell id="115" value="" style="endArrow=classic;html=1;fontFamily=Comic Sans MS;fontSize=12;fontColor=#050505;exitX=0.5;exitY=1;exitDx=0;exitDy=0;" parent="1" source="114" edge="1">
                    <mxGeometry width="50" height="50" relative="1" as="geometry">
                        <mxPoint x="58.5" y="3361" as="sourcePoint"/>
                        <mxPoint x="-1.5" y="3411" as="targetPoint"/>
                    </mxGeometry>
                </mxCell>
                <mxCell id="117" value="oui" style="edgeLabel;html=1;align=center;verticalAlign=middle;resizable=0;points=[];fontSize=12;fontFamily=Comic Sans MS;fontColor=#050505;" parent="115" vertex="1" connectable="0">
                    <mxGeometry x="-0.4024" y="-1" relative="1" as="geometry">
                        <mxPoint as="offset"/>
                    </mxGeometry>
                </mxCell>
                <mxCell id="116" value="l'homme lance la patate dur le dragon et le tue" style="rhombus;whiteSpace=wrap;html=1;glass=0;labelBackgroundColor=none;fontFamily=Comic Sans MS;fontSize=12;fontColor=#050505;fillColor=default;gradientColor=none;" parent="1" vertex="1">
                    <mxGeometry x="-65" y="3408" width="127" height="121" as="geometry"/>
                </mxCell>
                <mxCell id="118" value="" style="endArrow=classic;html=1;fontFamily=Comic Sans MS;fontSize=12;fontColor=#050505;exitX=1;exitY=0.5;exitDx=0;exitDy=0;" parent="1" source="114" edge="1">
                    <mxGeometry width="50" height="50" relative="1" as="geometry">
                        <mxPoint x="58.5" y="3421" as="sourcePoint"/>
                        <mxPoint x="98.5" y="3321" as="targetPoint"/>
                    </mxGeometry>
                </mxCell>
                <mxCell id="119" value="non" style="edgeLabel;html=1;align=center;verticalAlign=middle;resizable=0;points=[];fontSize=12;fontFamily=Comic Sans MS;fontColor=#050505;" parent="118" vertex="1" connectable="0">
                    <mxGeometry x="-0.4545" relative="1" as="geometry">
                        <mxPoint as="offset"/>
                    </mxGeometry>
                </mxCell>
                <mxCell id="120" value="le dragon vous mange tout rond&amp;nbsp;" style="rounded=1;whiteSpace=wrap;html=1;glass=0;labelBackgroundColor=none;fontFamily=Comic Sans MS;fontSize=12;fontColor=#050505;fillColor=default;gradientColor=none;" parent="1" vertex="1">
                    <mxGeometry x="98.5" y="3291" width="120" height="60" as="geometry"/>
                </mxCell>
                <mxCell id="122" value="" style="endArrow=classic;html=1;fontFamily=Comic Sans MS;fontSize=12;fontColor=#050505;exitX=0.5;exitY=1;exitDx=0;exitDy=0;" parent="1" source="116" edge="1">
                    <mxGeometry width="50" height="50" relative="1" as="geometry">
                        <mxPoint x="8.5" y="3451" as="sourcePoint"/>
                        <mxPoint x="-1.5" y="3541" as="targetPoint"/>
                    </mxGeometry>
                </mxCell>
                <mxCell id="123" value="bravo vous avez vaincu le dragon, le plus grand monstre du jeux !" style="rounded=1;whiteSpace=wrap;html=1;glass=0;labelBackgroundColor=none;fontFamily=Comic Sans MS;fontSize=12;fontColor=#050505;fillColor=default;gradientColor=none;" parent="1" vertex="1">
                    <mxGeometry x="-61.5" y="3541" width="120" height="60" as="geometry"/>
                </mxCell>
                <mxCell id="126" value="" style="endArrow=classic;html=1;fontColor=#050505;exitX=0.5;exitY=1;exitDx=0;exitDy=0;entryX=0.5;entryY=0;entryDx=0;entryDy=0;" parent="1" source="43" target="129" edge="1">
                    <mxGeometry width="50" height="50" relative="1" as="geometry">
                        <mxPoint x="-237" y="1665" as="sourcePoint"/>
                        <mxPoint x="-491" y="1773" as="targetPoint"/>
                    </mxGeometry>
                </mxCell>
                <mxCell id="132" value="vous avez l'&lt;span style=&quot;font-size: 12px ; font-family: &amp;quot;helvetica&amp;quot;&quot;&gt;ép&lt;/span&gt;&lt;span style=&quot;font-size: 12px ; font-family: &amp;quot;helvetica&amp;quot;&quot;&gt;ée&lt;/span&gt;" style="edgeLabel;html=1;align=center;verticalAlign=middle;resizable=0;points=[];fontColor=#050505;" parent="126" vertex="1" connectable="0">
                    <mxGeometry x="-0.4812" y="-2" relative="1" as="geometry">
                        <mxPoint as="offset"/>
                    </mxGeometry>
                </mxCell>
                <mxCell id="127" value="" style="endArrow=classic;html=1;fontFamily=Comic Sans MS;fontSize=12;fontColor=#050505;exitX=1;exitY=1;exitDx=0;exitDy=0;entryX=0.5;entryY=0;entryDx=0;entryDy=0;" parent="1" source="43" target="130" edge="1">
                    <mxGeometry width="50" height="50" relative="1" as="geometry">
                        <mxPoint x="-321" y="1711" as="sourcePoint"/>
                        <mxPoint x="-392" y="1769" as="targetPoint"/>
                        <Array as="points">
                            <mxPoint x="-340" y="1686"/>
                        </Array>
                    </mxGeometry>
                </mxCell>
                <mxCell id="133" value="vous avez le bouclier" style="edgeLabel;html=1;align=center;verticalAlign=middle;resizable=0;points=[];fontColor=#050505;" parent="127" vertex="1" connectable="0">
                    <mxGeometry x="0.4051" y="1" relative="1" as="geometry">
                        <mxPoint x="-9" y="6" as="offset"/>
                    </mxGeometry>
                </mxCell>
                <mxCell id="129" value="quelle attaque voulez vous faire?" style="rhombus;whiteSpace=wrap;html=1;glass=0;labelBackgroundColor=none;fontFamily=Comic Sans MS;fontSize=12;fontColor=#050505;fillColor=default;gradientColor=none;" parent="1" vertex="1">
                    <mxGeometry x="-541" y="1767" width="99" height="99" as="geometry"/>
                </mxCell>
                <mxCell id="130" value="quelle attaque voulez vous faire?" style="rhombus;whiteSpace=wrap;html=1;glass=0;labelBackgroundColor=none;fontFamily=Comic Sans MS;fontSize=12;fontColor=#050505;fillColor=default;gradientColor=none;" parent="1" vertex="1">
                    <mxGeometry x="-390" y="1767" width="99" height="99" as="geometry"/>
                </mxCell>
                <mxCell id="136" value="" style="endArrow=classic;html=1;fontColor=#050505;exitX=0.5;exitY=1;exitDx=0;exitDy=0;entryX=0.5;entryY=0;entryDx=0;entryDy=0;" parent="1" source="129" target="54" edge="1">
                    <mxGeometry width="50" height="50" relative="1" as="geometry">
                        <mxPoint x="-361" y="1883" as="sourcePoint"/>
                        <mxPoint x="-491" y="1923" as="targetPoint"/>
                    </mxGeometry>
                </mxCell>
                <mxCell id="272" value="attaquer avec un coup&lt;br&gt;verticale" style="edgeLabel;html=1;align=center;verticalAlign=middle;resizable=0;points=[];fontColor=#050505;" parent="136" vertex="1" connectable="0">
                    <mxGeometry x="-0.7071" relative="1" as="geometry">
                        <mxPoint as="offset"/>
                    </mxGeometry>
                </mxCell>
                <mxCell id="137" value="" style="endArrow=classic;html=1;fontColor=#050505;exitX=0.5;exitY=1;exitDx=0;exitDy=0;entryX=1;entryY=0.5;entryDx=0;entryDy=0;" parent="1" source="130" target="54" edge="1">
                    <mxGeometry width="50" height="50" relative="1" as="geometry">
                        <mxPoint x="-361" y="1883" as="sourcePoint"/>
                        <mxPoint x="-465" y="2030" as="targetPoint"/>
                        <Array as="points">
                            <mxPoint x="-340" y="2080"/>
                        </Array>
                    </mxGeometry>
                </mxCell>
                <mxCell id="274" value="charger vers le poulet" style="edgeLabel;html=1;align=center;verticalAlign=middle;resizable=0;points=[];fontColor=#050505;" parent="137" vertex="1" connectable="0">
                    <mxGeometry x="-0.8451" y="-2" relative="1" as="geometry">
                        <mxPoint as="offset"/>
                    </mxGeometry>
                </mxCell>
                <mxCell id="138" value="" style="endArrow=classic;html=1;fontColor=#050505;fillColor=#a20025;strokeColor=#6F0000;entryX=0;entryY=0.75;entryDx=0;entryDy=0;" parent="1" target="15" edge="1">
                    <mxGeometry width="50" height="50" relative="1" as="geometry">
                        <mxPoint x="-365" y="2030" as="sourcePoint"/>
                        <mxPoint x="10" y="1005" as="targetPoint"/>
                        <Array as="points">
                            <mxPoint x="695" y="2035"/>
                            <mxPoint x="-809" y="2030"/>
                            <mxPoint x="-809" y="1035"/>
                        </Array>
                    </mxGeometry>
                </mxCell>
                <mxCell id="140" value="" style="endArrow=none;html=1;fontColor=#050505;exitX=0;exitY=1;exitDx=0;exitDy=0;fillColor=#a20025;strokeColor=#6F0000;entryX=0.5;entryY=0;entryDx=0;entryDy=0;" parent="1" source="129" target="166" edge="1">
                    <mxGeometry width="50" height="50" relative="1" as="geometry">
                        <mxPoint x="-154" y="1911" as="sourcePoint"/>
                        <mxPoint x="-564" y="1927" as="targetPoint"/>
                        <Array as="points">
                            <mxPoint x="-564" y="1841"/>
                        </Array>
                    </mxGeometry>
                </mxCell>
                <mxCell id="270" value="&lt;span style=&quot;font-size: 12px; font-family: helvetica;&quot;&gt;tournez en rond&lt;br&gt;avec&amp;nbsp;&lt;/span&gt;&lt;span style=&quot;&quot;&gt;l'&lt;/span&gt;&lt;span style=&quot;font-size: 12px; font-family: helvetica;&quot;&gt;ép&lt;/span&gt;&lt;span style=&quot;font-size: 12px; font-family: helvetica;&quot;&gt;ée&lt;/span&gt;&lt;span style=&quot;font-size: 12px; font-family: helvetica;&quot;&gt;&lt;br&gt;&lt;/span&gt;" style="edgeLabel;html=1;align=center;verticalAlign=middle;resizable=0;points=[];fontColor=#050505;" parent="140" vertex="1" connectable="0">
                    <mxGeometry x="-0.0439" y="1" relative="1" as="geometry">
                        <mxPoint as="offset"/>
                    </mxGeometry>
                </mxCell>
                <mxCell id="163" value="" style="endArrow=none;html=1;fontColor=#050505;exitX=0;exitY=1;exitDx=0;exitDy=0;fillColor=#a20025;strokeColor=#6F0000;entryX=0.5;entryY=0;entryDx=0;entryDy=0;" parent="1" source="130" target="164" edge="1">
                    <mxGeometry width="50" height="50" relative="1" as="geometry">
                        <mxPoint x="-369.75" y="1839.7500000000005" as="sourcePoint"/>
                        <mxPoint x="-417" y="1934" as="targetPoint"/>
                        <Array as="points">
                            <mxPoint x="-416" y="1840"/>
                        </Array>
                    </mxGeometry>
                </mxCell>
                <mxCell id="273" value="enfoncer le bouclier&lt;br&gt;pour faire vibrer le sol" style="edgeLabel;html=1;align=center;verticalAlign=middle;resizable=0;points=[];fontColor=#050505;" parent="163" vertex="1" connectable="0">
                    <mxGeometry x="-0.0498" y="-1" relative="1" as="geometry">
                        <mxPoint as="offset"/>
                    </mxGeometry>
                </mxCell>
                <mxCell id="164" value="rien ne se produit et le bouclier est prit dans le sol. Le poulet vous tue" style="rounded=1;whiteSpace=wrap;html=1;fontColor=#050505;" parent="1" vertex="1">
                    <mxGeometry x="-475" y="1935" width="120" height="60" as="geometry"/>
                </mxCell>
                <mxCell id="166" value="&lt;span&gt;vous êtes&amp;nbsp;&lt;/span&gt;&lt;span style=&quot;font-family: &amp;quot;helvetica&amp;quot;&quot;&gt;étourdit&lt;/span&gt;&lt;span&gt;&lt;br&gt;&amp;nbsp;et le poulet vous tue&lt;/span&gt;" style="rounded=1;whiteSpace=wrap;html=1;fontColor=#050505;" parent="1" vertex="1">
                    <mxGeometry x="-623" y="1935" width="120" height="60" as="geometry"/>
                </mxCell>
                <mxCell id="171" value="" style="endArrow=none;html=1;fontColor=#050505;exitX=0.5;exitY=1;exitDx=0;exitDy=0;fillColor=#a20025;strokeColor=#6F0000;" parent="1" source="166" edge="1">
                    <mxGeometry width="50" height="50" relative="1" as="geometry">
                        <mxPoint x="-707.5999999999999" y="2006.1999999999998" as="sourcePoint"/>
                        <mxPoint x="-563" y="2031" as="targetPoint"/>
                    </mxGeometry>
                </mxCell>
                <mxCell id="172" value="" style="endArrow=none;html=1;fontColor=#050505;exitX=0.5;exitY=1;exitDx=0;exitDy=0;fillColor=#a20025;strokeColor=#6F0000;" parent="1" source="164" edge="1">
                    <mxGeometry width="50" height="50" relative="1" as="geometry">
                        <mxPoint x="-553" y="2005" as="sourcePoint"/>
                        <mxPoint x="-415" y="2032" as="targetPoint"/>
                    </mxGeometry>
                </mxCell>
                <mxCell id="176" value="un canard vous affronter" style="rhombus;whiteSpace=wrap;html=1;glass=0;labelBackgroundColor=none;fontFamily=Comic Sans MS;fontSize=12;fontColor=#050505;fillColor=default;gradientColor=none;" parent="1" vertex="1">
                    <mxGeometry x="561.5" y="1615" width="99" height="99" as="geometry"/>
                </mxCell>
                <mxCell id="179" value="vous avez battu le canard" style="rounded=1;whiteSpace=wrap;html=1;glass=0;labelBackgroundColor=none;fontFamily=Comic Sans MS;fontSize=12;fontColor=#050505;fillColor=default;gradientColor=none;" parent="1" vertex="1">
                    <mxGeometry x="550" y="2052.5" width="120" height="60" as="geometry"/>
                </mxCell>
                <mxCell id="180" value="" style="endArrow=classic;html=1;fontColor=#050505;exitX=0.5;exitY=1;exitDx=0;exitDy=0;entryX=0.5;entryY=0;entryDx=0;entryDy=0;" parent="1" source="176" target="185" edge="1">
                    <mxGeometry width="50" height="50" relative="1" as="geometry">
                        <mxPoint x="865.5" y="1668" as="sourcePoint"/>
                        <mxPoint x="611.5" y="1776" as="targetPoint"/>
                    </mxGeometry>
                </mxCell>
                <mxCell id="181" value="vous avez l'&lt;span style=&quot;font-size: 12px ; font-family: &amp;quot;helvetica&amp;quot;&quot;&gt;ép&lt;/span&gt;&lt;span style=&quot;font-size: 12px ; font-family: &amp;quot;helvetica&amp;quot;&quot;&gt;ée&lt;/span&gt;" style="edgeLabel;html=1;align=center;verticalAlign=middle;resizable=0;points=[];fontColor=#050505;" parent="180" vertex="1" connectable="0">
                    <mxGeometry x="-0.4812" y="-2" relative="1" as="geometry">
                        <mxPoint as="offset"/>
                    </mxGeometry>
                </mxCell>
                <mxCell id="182" value="" style="endArrow=classic;html=1;fontFamily=Comic Sans MS;fontSize=12;fontColor=#050505;exitX=1;exitY=1;exitDx=0;exitDy=0;entryX=0.5;entryY=0;entryDx=0;entryDy=0;" parent="1" source="176" target="186" edge="1">
                    <mxGeometry width="50" height="50" relative="1" as="geometry">
                        <mxPoint x="781.5" y="1714" as="sourcePoint"/>
                        <mxPoint x="710.5" y="1772" as="targetPoint"/>
                        <Array as="points">
                            <mxPoint x="762.5" y="1689"/>
                        </Array>
                    </mxGeometry>
                </mxCell>
                <mxCell id="183" value="vous avez le bouclier" style="edgeLabel;html=1;align=center;verticalAlign=middle;resizable=0;points=[];fontColor=#050505;" parent="182" vertex="1" connectable="0">
                    <mxGeometry x="0.4051" y="1" relative="1" as="geometry">
                        <mxPoint x="-9" y="6" as="offset"/>
                    </mxGeometry>
                </mxCell>
                <mxCell id="185" value="quelle attaque voulez vous faire?" style="rhombus;whiteSpace=wrap;html=1;glass=0;labelBackgroundColor=none;fontFamily=Comic Sans MS;fontSize=12;fontColor=#050505;fillColor=default;gradientColor=none;" parent="1" vertex="1">
                    <mxGeometry x="561.5" y="1770" width="99" height="99" as="geometry"/>
                </mxCell>
                <mxCell id="186" value="quelle attaque voulez vous faire?" style="rhombus;whiteSpace=wrap;html=1;glass=0;labelBackgroundColor=none;fontFamily=Comic Sans MS;fontSize=12;fontColor=#050505;fillColor=default;gradientColor=none;" parent="1" vertex="1">
                    <mxGeometry x="712.5" y="1770" width="99" height="99" as="geometry"/>
                </mxCell>
                <mxCell id="188" value="" style="endArrow=classic;html=1;fontColor=#050505;exitX=0.5;exitY=1;exitDx=0;exitDy=0;entryX=0.5;entryY=0;entryDx=0;entryDy=0;" parent="1" source="185" target="179" edge="1">
                    <mxGeometry width="50" height="50" relative="1" as="geometry">
                        <mxPoint x="741.5" y="1886" as="sourcePoint"/>
                        <mxPoint x="611.5" y="1926" as="targetPoint"/>
                    </mxGeometry>
                </mxCell>
                <mxCell id="292" value="atendre que le canard&lt;br&gt;&amp;nbsp;vienne a vous" style="edgeLabel;html=1;align=center;verticalAlign=middle;resizable=0;points=[];fontColor=#050505;" parent="188" vertex="1" connectable="0">
                    <mxGeometry x="-0.7316" y="-1" relative="1" as="geometry">
                        <mxPoint as="offset"/>
                    </mxGeometry>
                </mxCell>
                <mxCell id="189" value="" style="endArrow=classic;html=1;fontColor=#050505;exitX=0.5;exitY=1;exitDx=0;exitDy=0;entryX=1;entryY=0.5;entryDx=0;entryDy=0;" parent="1" source="186" target="179" edge="1">
                    <mxGeometry width="50" height="50" relative="1" as="geometry">
                        <mxPoint x="741.5" y="1886" as="sourcePoint"/>
                        <mxPoint x="637.5" y="2033" as="targetPoint"/>
                        <Array as="points">
                            <mxPoint x="763" y="2082.5"/>
                        </Array>
                    </mxGeometry>
                </mxCell>
                <mxCell id="294" value="flotter sur le bouclier&amp;nbsp;&lt;br&gt;pour se rendre au canard" style="edgeLabel;html=1;align=center;verticalAlign=middle;resizable=0;points=[];fontColor=#050505;" parent="189" vertex="1" connectable="0">
                    <mxGeometry x="-0.8079" y="-1" relative="1" as="geometry">
                        <mxPoint as="offset"/>
                    </mxGeometry>
                </mxCell>
                <mxCell id="190" value="" style="endArrow=none;html=1;fontColor=#050505;exitX=0;exitY=1;exitDx=0;exitDy=0;fillColor=#a20025;strokeColor=#6F0000;entryX=0.572;entryY=0.006;entryDx=0;entryDy=0;entryPerimeter=0;" parent="1" source="185" target="193" edge="1">
                    <mxGeometry width="50" height="50" relative="1" as="geometry">
                        <mxPoint x="948.5" y="1914" as="sourcePoint"/>
                        <mxPoint x="545" y="1945.5" as="targetPoint"/>
                        <Array as="points">
                            <mxPoint x="545" y="1844.5"/>
                        </Array>
                    </mxGeometry>
                </mxCell>
                <mxCell id="291" value="lancer&amp;nbsp;&lt;span style=&quot;&quot;&gt;&amp;nbsp;l'&lt;/span&gt;&lt;span style=&quot;font-size: 12px; font-family: helvetica;&quot;&gt;ép&lt;/span&gt;&lt;span style=&quot;font-size: 12px; font-family: helvetica;&quot;&gt;ée dans l'eau&lt;br&gt;pour faire des vagues&lt;br&gt;&lt;/span&gt;" style="edgeLabel;html=1;align=center;verticalAlign=middle;resizable=0;points=[];fontColor=#050505;" parent="190" vertex="1" connectable="0">
                    <mxGeometry x="-0.2412" y="-1" relative="1" as="geometry">
                        <mxPoint x="-8" y="9" as="offset"/>
                    </mxGeometry>
                </mxCell>
                <mxCell id="192" value="" style="endArrow=none;html=1;fontColor=#050505;exitX=0;exitY=1;exitDx=0;exitDy=0;fillColor=#a20025;strokeColor=#6F0000;entryX=0.5;entryY=0;entryDx=0;entryDy=0;" parent="1" source="186" target="195" edge="1">
                    <mxGeometry width="50" height="50" relative="1" as="geometry">
                        <mxPoint x="736" y="1846.5000000000005" as="sourcePoint"/>
                        <mxPoint x="701" y="1947.5" as="targetPoint"/>
                        <Array as="points">
                            <mxPoint x="691" y="1844.5"/>
                        </Array>
                    </mxGeometry>
                </mxCell>
                <mxCell id="293" value="lancer le bouclier comme&lt;br&gt;un disque" style="edgeLabel;html=1;align=center;verticalAlign=middle;resizable=0;points=[];fontColor=#050505;" parent="192" vertex="1" connectable="0">
                    <mxGeometry x="-0.0297" relative="1" as="geometry">
                        <mxPoint as="offset"/>
                    </mxGeometry>
                </mxCell>
                <mxCell id="193" value="&lt;span&gt;le canard flotte et vous tue&lt;/span&gt;" style="rounded=1;whiteSpace=wrap;html=1;fontColor=#050505;" parent="1" vertex="1">
                    <mxGeometry x="479" y="1946.5" width="120" height="60" as="geometry"/>
                </mxCell>
                <mxCell id="195" value="le bouclier tombe dans l'eau et le canard vous tue" style="rounded=1;whiteSpace=wrap;html=1;fontColor=#050505;" parent="1" vertex="1">
                    <mxGeometry x="631" y="1946.5" width="120" height="60" as="geometry"/>
                </mxCell>
                <mxCell id="197" value="" style="endArrow=none;html=1;fontColor=#050505;exitX=0.5;exitY=1;exitDx=0;exitDy=0;fillColor=#a20025;strokeColor=#6F0000;" parent="1" source="193" edge="1">
                    <mxGeometry width="50" height="50" relative="1" as="geometry">
                        <mxPoint x="538.6" y="2006.5" as="sourcePoint"/>
                        <mxPoint x="538.6000000000004" y="2037.5000000000005" as="targetPoint"/>
                    </mxGeometry>
                </mxCell>
                <mxCell id="198" value="" style="endArrow=none;html=1;fontColor=#050505;exitX=0.5;exitY=1;exitDx=0;exitDy=0;fillColor=#a20025;strokeColor=#6F0000;" parent="1" source="195" edge="1">
                    <mxGeometry width="50" height="50" relative="1" as="geometry">
                        <mxPoint x="549" y="2016.5" as="sourcePoint"/>
                        <mxPoint x="691" y="2036.5" as="targetPoint"/>
                    </mxGeometry>
                </mxCell>
                <mxCell id="199" value="&lt;span style=&quot;font-family: &amp;quot;comic sans ms&amp;quot;&quot;&gt;le poulet est trop rapide, r&lt;/span&gt;&lt;span style=&quot;font-family: &amp;quot;helvetica&amp;quot;&quot;&gt;é&lt;/span&gt;&lt;span style=&quot;font-family: &amp;quot;comic sans ms&amp;quot;&quot;&gt;nitialisation de votre progression&lt;/span&gt;" style="rounded=1;whiteSpace=wrap;html=1;fontColor=#050505;" parent="1" vertex="1">
                    <mxGeometry x="-667" y="2315" width="120" height="60" as="geometry"/>
                </mxCell>
                <mxCell id="201" value="" style="endArrow=none;html=1;fontColor=#050505;exitX=0.5;exitY=1;exitDx=0;exitDy=0;fillColor=#a20025;strokeColor=#6F0000;" parent="1" source="199" edge="1">
                    <mxGeometry width="50" height="50" relative="1" as="geometry">
                        <mxPoint x="-273" y="2236" as="sourcePoint"/>
                        <mxPoint x="-808" y="2034" as="targetPoint"/>
                        <Array as="points">
                            <mxPoint x="-607" y="2441"/>
                            <mxPoint x="-803" y="2441"/>
                        </Array>
                    </mxGeometry>
                </mxCell>
                <mxCell id="213" value="vous voyez quleque chose briller au fond de l'eau" style="rhombus;whiteSpace=wrap;html=1;glass=0;labelBackgroundColor=none;fontFamily=Comic Sans MS;fontSize=12;fontColor=#050505;fillColor=default;gradientColor=none;" parent="1" vertex="1">
                    <mxGeometry x="544.5" y="2153" width="133" height="133" as="geometry"/>
                </mxCell>
                <mxCell id="215" value="" style="endArrow=classic;html=1;fontFamily=Comic Sans MS;fontSize=12;fontColor=#050505;exitX=0;exitY=1;exitDx=0;exitDy=0;fillColor=#a20025;strokeColor=#6F0000;entryX=0.5;entryY=0;entryDx=0;entryDy=0;" parent="1" source="213" target="217" edge="1">
                    <mxGeometry width="50" height="50" relative="1" as="geometry">
                        <mxPoint x="1103.75" y="2318.5" as="sourcePoint"/>
                        <mxPoint x="535.75" y="2295.5" as="targetPoint"/>
                        <Array as="points">
                            <mxPoint x="492" y="2253"/>
                        </Array>
                    </mxGeometry>
                </mxCell>
                <mxCell id="216" value="regarder de&lt;br&gt;plus pres" style="edgeLabel;html=1;align=center;verticalAlign=middle;resizable=0;points=[];fontSize=12;fontFamily=Comic Sans MS;fontColor=#050505;" parent="215" vertex="1" connectable="0">
                    <mxGeometry x="0.3458" relative="1" as="geometry">
                        <mxPoint as="offset"/>
                    </mxGeometry>
                </mxCell>
                <mxCell id="217" value="&lt;span style=&quot;font-family: &amp;quot;comic sans ms&amp;quot;&quot;&gt;un poisson lanterne vous avale tout rond, r&lt;/span&gt;&lt;span style=&quot;font-family: &amp;quot;helvetica&amp;quot;&quot;&gt;é&lt;/span&gt;&lt;span style=&quot;font-family: &amp;quot;comic sans ms&amp;quot;&quot;&gt;nitialisation de votre progression&lt;/span&gt;" style="rounded=1;whiteSpace=wrap;html=1;fontColor=#050505;" parent="1" vertex="1">
                    <mxGeometry x="431.75" y="2293.5" width="120" height="112.5" as="geometry"/>
                </mxCell>
                <mxCell id="218" value="" style="endArrow=classic;html=1;fontColor=#050505;entryX=0.5;entryY=0;entryDx=0;entryDy=0;exitX=0.5;exitY=1;exitDx=0;exitDy=0;" parent="1" source="179" target="213" edge="1">
                    <mxGeometry width="50" height="50" relative="1" as="geometry">
                        <mxPoint x="649" y="2142" as="sourcePoint"/>
                        <mxPoint x="320" y="2272" as="targetPoint"/>
                    </mxGeometry>
                </mxCell>
                <mxCell id="281" value="&lt;span style=&quot;&quot;&gt;continuer&lt;/span&gt;" style="edgeLabel;html=1;align=center;verticalAlign=middle;resizable=0;points=[];fontColor=#050505;" parent="218" vertex="1" connectable="0">
                    <mxGeometry x="-0.5495" y="1" relative="1" as="geometry">
                        <mxPoint as="offset"/>
                    </mxGeometry>
                </mxCell>
                <mxCell id="219" value="" style="endArrow=classic;html=1;fontColor=#050505;exitX=0.5;exitY=1;exitDx=0;exitDy=0;entryX=1;entryY=0.75;entryDx=0;entryDy=0;" parent="1" source="213" target="84" edge="1">
                    <mxGeometry width="50" height="50" relative="1" as="geometry">
                        <mxPoint x="270" y="2322" as="sourcePoint"/>
                        <mxPoint x="636" y="2400" as="targetPoint"/>
                        <Array as="points">
                            <mxPoint x="611" y="2502"/>
                        </Array>
                    </mxGeometry>
                </mxCell>
                <mxCell id="221" value="partir" style="edgeLabel;html=1;align=center;verticalAlign=middle;resizable=0;points=[];fontColor=#050505;" parent="219" vertex="1" connectable="0">
                    <mxGeometry x="-0.8465" y="1" relative="1" as="geometry">
                        <mxPoint y="-1" as="offset"/>
                    </mxGeometry>
                </mxCell>
                <mxCell id="220" value="" style="endArrow=none;html=1;fontColor=#050505;fillColor=#a20025;strokeColor=#6F0000;entryX=0.5;entryY=1;entryDx=0;entryDy=0;" parent="1" target="217" edge="1">
                    <mxGeometry width="50" height="50" relative="1" as="geometry">
                        <mxPoint x="-617" y="2441" as="sourcePoint"/>
                        <mxPoint x="485" y="2411" as="targetPoint"/>
                        <Array as="points">
                            <mxPoint x="492" y="2441"/>
                        </Array>
                    </mxGeometry>
                </mxCell>
                <mxCell id="223" value="" style="endArrow=none;html=1;fontColor=#050505;fillColor=#a20025;strokeColor=#6F0000;" parent="1" edge="1">
                    <mxGeometry width="50" height="50" relative="1" as="geometry">
                        <mxPoint x="-804" y="2436" as="sourcePoint"/>
                        <mxPoint x="-804" y="2723" as="targetPoint"/>
                        <Array as="points">
                            <mxPoint x="-804" y="2713"/>
                        </Array>
                    </mxGeometry>
                </mxCell>
                <mxCell id="242" value="" style="endArrow=classic;html=1;fontColor=#050505;exitX=0.5;exitY=1;exitDx=0;exitDy=0;entryX=0.5;entryY=0;entryDx=0;entryDy=0;" parent="1" source="98" target="247" edge="1">
                    <mxGeometry width="50" height="50" relative="1" as="geometry">
                        <mxPoint x="54.999999999999545" y="2699.0000000000005" as="sourcePoint"/>
                        <mxPoint x="55.5" y="2761" as="targetPoint"/>
                    </mxGeometry>
                </mxCell>
                <mxCell id="243" value="vous avez l'&lt;span style=&quot;font-size: 12px ; font-family: &amp;quot;helvetica&amp;quot;&quot;&gt;ép&lt;/span&gt;&lt;span style=&quot;font-size: 12px ; font-family: &amp;quot;helvetica&amp;quot;&quot;&gt;ée&lt;/span&gt;" style="edgeLabel;html=1;align=center;verticalAlign=middle;resizable=0;points=[];fontColor=#050505;" parent="242" vertex="1" connectable="0">
                    <mxGeometry x="-0.4812" y="-2" relative="1" as="geometry">
                        <mxPoint as="offset"/>
                    </mxGeometry>
                </mxCell>
                <mxCell id="244" value="" style="endArrow=classic;html=1;fontFamily=Comic Sans MS;fontSize=12;fontColor=#050505;exitX=1;exitY=1;exitDx=0;exitDy=0;entryX=0.5;entryY=0;entryDx=0;entryDy=0;" parent="1" source="98" target="248" edge="1">
                    <mxGeometry width="50" height="50" relative="1" as="geometry">
                        <mxPoint x="79.74999999999955" y="2674.25" as="sourcePoint"/>
                        <mxPoint x="154.5" y="2757" as="targetPoint"/>
                        <Array as="points">
                            <mxPoint x="206" y="2669"/>
                        </Array>
                    </mxGeometry>
                </mxCell>
                <mxCell id="245" value="vous avez le bouclier" style="edgeLabel;html=1;align=center;verticalAlign=middle;resizable=0;points=[];fontColor=#050505;" parent="244" vertex="1" connectable="0">
                    <mxGeometry x="0.4051" y="1" relative="1" as="geometry">
                        <mxPoint x="-9" y="6" as="offset"/>
                    </mxGeometry>
                </mxCell>
                <mxCell id="247" value="quelle attaque voulez vous faire?" style="rhombus;whiteSpace=wrap;html=1;glass=0;labelBackgroundColor=none;fontFamily=Comic Sans MS;fontSize=12;fontColor=#050505;fillColor=default;gradientColor=none;" parent="1" vertex="1">
                    <mxGeometry x="5.5" y="2755" width="99" height="99" as="geometry"/>
                </mxCell>
                <mxCell id="248" value="quelle attaque voulez vous faire?" style="rhombus;whiteSpace=wrap;html=1;glass=0;labelBackgroundColor=none;fontFamily=Comic Sans MS;fontSize=12;fontColor=#050505;fillColor=default;gradientColor=none;" parent="1" vertex="1">
                    <mxGeometry x="156.5" y="2755" width="99" height="99" as="geometry"/>
                </mxCell>
                <mxCell id="249" value="" style="endArrow=none;html=1;fontColor=#050505;exitX=0;exitY=1;exitDx=0;exitDy=0;fillColor=#a20025;strokeColor=#6F0000;entryX=0.5;entryY=0;entryDx=0;entryDy=0;" parent="1" source="247" target="252" edge="1">
                    <mxGeometry width="50" height="50" relative="1" as="geometry">
                        <mxPoint x="392.5" y="2899" as="sourcePoint"/>
                        <mxPoint x="-11" y="2930.5" as="targetPoint"/>
                        <Array as="points">
                            <mxPoint x="-11" y="2829.5"/>
                        </Array>
                    </mxGeometry>
                </mxCell>
                <mxCell id="261" value="fuir" style="edgeLabel;html=1;align=center;verticalAlign=middle;resizable=0;points=[];fontColor=#050505;" parent="249" vertex="1" connectable="0">
                    <mxGeometry x="-0.0897" relative="1" as="geometry">
                        <mxPoint as="offset"/>
                    </mxGeometry>
                </mxCell>
                <mxCell id="251" value="" style="endArrow=none;html=1;fontColor=#050505;exitX=0;exitY=1;exitDx=0;exitDy=0;fillColor=#a20025;strokeColor=#6F0000;entryX=0.5;entryY=0;entryDx=0;entryDy=0;" parent="1" source="248" target="254" edge="1">
                    <mxGeometry width="50" height="50" relative="1" as="geometry">
                        <mxPoint x="180" y="2831.5000000000005" as="sourcePoint"/>
                        <mxPoint x="145" y="2932.5" as="targetPoint"/>
                        <Array as="points">
                            <mxPoint x="135" y="2829.5"/>
                        </Array>
                    </mxGeometry>
                </mxCell>
                <mxCell id="262" value="fuir" style="edgeLabel;html=1;align=center;verticalAlign=middle;resizable=0;points=[];fontColor=#050505;" parent="251" vertex="1" connectable="0">
                    <mxGeometry x="-0.0506" y="-1" relative="1" as="geometry">
                        <mxPoint as="offset"/>
                    </mxGeometry>
                </mxCell>
                <mxCell id="252" value="&lt;span&gt;le dragon vous crache des flames au moment où vous tournez le dos&lt;/span&gt;" style="rounded=1;whiteSpace=wrap;html=1;fontColor=#050505;" parent="1" vertex="1">
                    <mxGeometry x="-73" y="2931.5" width="120" height="60" as="geometry"/>
                </mxCell>
                <mxCell id="254" value="&lt;span&gt;le dragon vous crache des flames au moment où vous tournez le dos&lt;/span&gt;" style="rounded=1;whiteSpace=wrap;html=1;fontColor=#050505;" parent="1" vertex="1">
                    <mxGeometry x="75" y="2931.5" width="120" height="60" as="geometry"/>
                </mxCell>
                <mxCell id="264" value="" style="endArrow=classic;html=1;fontColor=#050505;exitX=0.5;exitY=1;exitDx=0;exitDy=0;" parent="1" source="247" target="111" edge="1">
                    <mxGeometry width="50" height="50" relative="1" as="geometry">
                        <mxPoint x="-6" y="2991.5" as="sourcePoint"/>
                        <mxPoint x="-7" y="3175.0000000000005" as="targetPoint"/>
                        <Array as="points">
                            <mxPoint x="55" y="3076"/>
                            <mxPoint x="-1" y="3076"/>
                        </Array>
                    </mxGeometry>
                </mxCell>
                <mxCell id="301" value="faire des attaques sur les&amp;nbsp;&lt;br&gt;jambes du dragon" style="edgeLabel;html=1;align=center;verticalAlign=middle;resizable=0;points=[];fontColor=#050505;" parent="264" vertex="1" connectable="0">
                    <mxGeometry x="-0.7363" relative="1" as="geometry">
                        <mxPoint as="offset"/>
                    </mxGeometry>
                </mxCell>
                <mxCell id="265" value="" style="endArrow=classic;html=1;fontColor=#050505;entryX=0.994;entryY=0.406;entryDx=0;entryDy=0;entryPerimeter=0;exitX=0.5;exitY=1;exitDx=0;exitDy=0;" parent="1" source="248" target="111" edge="1">
                    <mxGeometry width="50" height="50" relative="1" as="geometry">
                        <mxPoint x="178" y="3037" as="sourcePoint"/>
                        <mxPoint x="75" y="3226" as="targetPoint"/>
                        <Array as="points">
                            <mxPoint x="206" y="3205"/>
                        </Array>
                    </mxGeometry>
                </mxCell>
                <mxCell id="302" value="renvoyer le feu vers le dragon&lt;br&gt;en vous prot&lt;span style=&quot;font-family: helvetica; font-size: 12px;&quot;&gt;é&lt;/span&gt;geant" style="edgeLabel;html=1;align=center;verticalAlign=middle;resizable=0;points=[];fontColor=#050505;" parent="265" vertex="1" connectable="0">
                    <mxGeometry x="-0.8077" y="1" relative="1" as="geometry">
                        <mxPoint as="offset"/>
                    </mxGeometry>
                </mxCell>
                <mxCell id="267" value="" style="endArrow=none;html=1;fontColor=#050505;exitX=0;exitY=0.5;exitDx=0;exitDy=0;fillColor=#a20025;strokeColor=#6F0000;" parent="1" source="123" edge="1">
                    <mxGeometry width="50" height="50" relative="1" as="geometry">
                        <mxPoint x="-85" y="3524" as="sourcePoint"/>
                        <mxPoint x="-805" y="2713" as="targetPoint"/>
                        <Array as="points">
                            <mxPoint x="-805" y="3571"/>
                        </Array>
                    </mxGeometry>
                </mxCell>
                <mxCell id="296" value="" style="endArrow=none;html=1;fillColor=#a20025;strokeColor=#6F0000;fontColor=#050505;" parent="1" edge="1">
                    <mxGeometry width="50" height="50" relative="1" as="geometry">
                        <mxPoint x="-804" y="3059" as="sourcePoint"/>
                        <mxPoint x="-152" y="3053" as="targetPoint"/>
                        <Array as="points">
                            <mxPoint x="-168" y="3053"/>
                        </Array>
                    </mxGeometry>
                </mxCell>
                <mxCell id="297" value="" style="endArrow=none;html=1;entryX=0.5;entryY=1;entryDx=0;entryDy=0;fillColor=#a20025;strokeColor=#6F0000;fontColor=#050505;" parent="1" target="252" edge="1">
                    <mxGeometry width="50" height="50" relative="1" as="geometry">
                        <mxPoint x="-168" y="3053" as="sourcePoint"/>
                        <mxPoint x="-158" y="2999.5" as="targetPoint"/>
                        <Array as="points">
                            <mxPoint x="-13" y="3053"/>
                        </Array>
                    </mxGeometry>
                </mxCell>
                <mxCell id="298" value="" style="endArrow=none;html=1;fillColor=#a20025;strokeColor=#6F0000;entryX=0.5;entryY=1;entryDx=0;entryDy=0;fontColor=#050505;" parent="1" target="254" edge="1">
                    <mxGeometry width="50" height="50" relative="1" as="geometry">
                        <mxPoint x="-19" y="3053" as="sourcePoint"/>
                        <mxPoint x="150" y="3012" as="targetPoint"/>
                        <Array as="points">
                            <mxPoint x="136" y="3053"/>
                        </Array>
                    </mxGeometry>
                </mxCell>
            </root>
        </mxGraphModel>
    </diagram>
</mxfile>